HIERARCHY
ROOT Hips
{
	OFFSET 0.000000 0.000000 0.000000 
	CHANNELS 6 Xposition Yposition Zposition Zrotation Yrotation Xrotation
	JOINT LeftUpLeg
	{
		OFFSET 1.363060 -1.794630 0.839290 
		CHANNELS 3 Zrotation Yrotation Xrotation
		JOINT LeftLeg
		{
			OFFSET 2.448110 -6.726130 0.000000 
			CHANNELS 3 Zrotation Yrotation Xrotation
			JOINT LeftFoot
			{
				OFFSET 2.562200 -7.039590 0.000000 
				CHANNELS 3 Zrotation Yrotation Xrotation
				JOINT LeftToeBase
				{
					OFFSET 0.157640 -0.433110 2.322550 
					CHANNELS 3 Zrotation Yrotation Xrotation
					End Site
					{
						OFFSET 0.000000 0.000000 0.000000 
					}
				}
			}
		}
	}
	JOINT RightUpLeg
	{
		OFFSET -1.305520 -1.794630 0.839290 
		CHANNELS 3 Zrotation Yrotation Xrotation
		JOINT RightLeg
		{
			OFFSET -2.542530 -6.985550 0.000000 
			CHANNELS 3 Zrotation Yrotation Xrotation
			JOINT RightFoot
			{
				OFFSET -2.568260 -7.056230 0.000000 
				CHANNELS 3 Zrotation Yrotation Xrotation
				JOINT RightToeBase
				{
					OFFSET -0.164730 -0.452590 2.363150 
					CHANNELS 3 Zrotation Yrotation Xrotation
					End Site
					{
						OFFSET 0.000000 0.000000 0.000000 
					}
				}
			}
		}
	}
	JOINT Spine
	{
		OFFSET 0.028270 2.035590 -0.193380 
		CHANNELS 3 Zrotation Yrotation Xrotation
		JOINT Spine1
		{
			OFFSET 0.056720 2.048850 -0.042750 
			CHANNELS 3 Zrotation Yrotation Xrotation
			JOINT Neck1
			{
				OFFSET -0.054170 1.746240 0.172020 
				CHANNELS 3 Zrotation Yrotation Xrotation
				JOINT Head
				{
					OFFSET 0.104070 1.761360 -0.123970 
					CHANNELS 3 Zrotation Yrotation Xrotation
					End Site
					{
						OFFSET 0.000000 0.000000 0.000000 
					}
				}
			}
			JOINT LeftArm
			{
				OFFSET 3.362410 1.200890 -0.311210 
				CHANNELS 3 Zrotation Yrotation Xrotation
				JOINT LeftForeArm
				{
					OFFSET 4.983000 -0.000000 -0.000000 
					CHANNELS 3 Zrotation Yrotation Xrotation
					JOINT LeftHand
					{
						OFFSET 3.483560 -0.000000 -0.000000 
						CHANNELS 3 Zrotation Yrotation Xrotation
						JOINT LeftHandIndex1
						{
							OFFSET 0.715260 -0.000000 -0.000000 
							CHANNELS 3 Zrotation Yrotation Xrotation
							End Site
							{
								OFFSET 0.000000 0.000000 0.000000 
							}
						}
					}
				}
			}
			JOINT RightArm
			{
				OFFSET -3.136600 1.374050 -0.404650 
				CHANNELS 3 Zrotation Yrotation Xrotation
				JOINT RightForeArm
				{
					OFFSET -5.241900 -0.000000 -0.000000 
					CHANNELS 3 Zrotation Yrotation Xrotation
					JOINT RightHand
					{
						OFFSET -3.444170 -0.000000 -0.000000 
						CHANNELS 3 Zrotation Yrotation Xrotation
						JOINT RightHandIndex1
						{
							OFFSET -0.622530 -0.000000 -0.000000 
							CHANNELS 3 Zrotation Yrotation Xrotation
							End Site
							{
								OFFSET 0.000000 0.000000 0.000000 
							}
						}
					}
				}
			}
		}
	}
}
MOTION
Frames: 12
Frame Time: 0.041667
-0.328577 17.810777 -29.294316 -3.487680 35.104351 0.425657 -6.203612 -10.222459 -10.199238 0.721301 9.795089 26.289872 -0.359706 3.896355 2.051363 0.248100 -3.205200 -8.850700 15.507447 -11.850869 -7.142829 -1.191862 -9.184599 23.764159 8.795907 -33.621078 -20.413719 -0.006300 -0.510900 1.403800 2.568789 8.071260 -1.207782 1.234376 4.181286 -0.881862 -2.663488 29.060869 1.948869 -2.847700 14.330700 4.836900 -93.836841 0.779605 10.603052 14.973175 -24.021810 -2.982619 0.176736 0.336237 -4.406470 -7.125000 0.000000 0.000000 83.170594 0.182847 24.236207 -16.010023 25.689019 -3.605595 0.119022 -0.521250 -12.207956 7.125000 0.000000 0.000000 
-0.332172 17.812774 -29.298709 -3.504295 35.280282 0.492286 -6.165792 -10.343587 -10.285364 0.719971 9.787322 26.282381 -0.343387 3.839553 2.121384 0.250600 -3.220800 -8.894100 15.555150 -11.859571 -7.261275 -1.192982 -9.189776 23.782944 8.813625 -33.687781 -20.518681 -0.007000 -0.540100 1.484200 2.585192 8.112638 -1.222261 1.262548 4.209255 -0.905173 -2.907721 29.133839 1.271843 -2.981800 14.354000 4.607400 -93.956484 0.567398 10.598702 15.120453 -24.226089 -3.036174 0.173519 0.322143 -4.464144 -7.125000 0.000000 0.000000 83.234549 -0.037011 24.337008 -15.723740 25.322227 -3.493082 0.108770 -0.519808 -11.771346 7.125000 0.000000 0.000000 
-0.330674 17.814671 -29.302602 -3.407633 35.420218 0.578002 -6.253493 -10.382467 -10.322258 0.714528 9.781239 26.272830 -0.309892 3.721357 2.140206 0.242800 -3.171100 -8.755500 15.462859 -11.944629 -7.349656 -1.200355 -9.199704 23.815995 8.817358 -33.693567 -20.530473 -0.006800 -0.532200 1.462400 2.548171 8.158555 -1.219361 1.218690 4.237753 -0.905832 -3.207268 29.231413 0.744469 -3.127500 14.397400 4.409200 -93.962760 0.582844 10.966759 15.460843 -24.697764 -3.168903 0.174056 0.337757 -4.964748 -7.125000 0.000000 0.000000 83.414087 -0.241925 24.087913 -15.469675 24.995551 -3.388191 0.109948 -0.513877 -11.524881 7.125000 0.000000 0.000000 
-0.328178 17.814970 -29.306995 -3.389797 35.531392 0.622199 -6.280964 -10.478169 -10.357131 0.711824 9.777111 26.263759 -0.312455 3.730484 2.191378 0.247200 -3.199300 -8.834000 15.431144 -12.078089 -7.460567 -1.208230 -9.207177 23.842978 8.815057 -33.668912 -20.465820 -0.006900 -0.537100 1.475900 2.531848 8.186924 -1.235261 1.167828 4.250154 -0.913398 -3.098543 29.292219 0.933571 -3.050000 14.426100 4.477200 -94.015443 0.541663 11.372409 15.754652 -25.099274 -3.283746 0.171378 0.348096 -5.989175 -7.125000 0.000000 0.000000 83.549715 -0.329496 23.981938 -15.072575 24.486410 -3.240345 0.100457 -0.511878 -10.703444 7.125000 0.000000 0.000000 
-0.327479 17.815669 -29.310789 -3.365265 35.672229 0.662124 -6.305904 -10.556529 -10.387915 0.707969 9.771138 26.252730 -0.295295 3.670812 2.235746 0.246400 -3.194300 -8.820200 15.408220 -12.178793 -7.547094 -1.214224 -9.214377 23.868388 8.817933 -33.674012 -20.470634 -0.007100 -0.543000 1.492000 2.520338 8.230673 -1.245667 1.144264 4.274044 -0.931921 -3.157041 29.350506 0.763949 -3.073500 14.451500 4.411300 -94.051253 0.503769 11.674281 16.017642 -25.456262 -3.388096 0.170520 0.352596 -6.503315 -7.125000 0.000000 0.000000 83.684971 -0.481652 23.818198 -14.742348 24.058071 -3.117754 0.093300 -0.508835 -10.070465 7.125000 0.000000 0.000000 
-0.327080 17.816069 -29.314184 -3.346881 35.814681 0.685583 -6.326461 -10.625731 -10.411907 0.706022 9.768828 26.251978 -0.273754 3.595753 2.269703 0.245100 -3.185600 -8.796000 15.392564 -12.283585 -7.612246 -1.218772 -9.218490 23.884549 8.820736 -33.681617 -20.481723 -0.007200 -0.549500 1.510000 2.513736 8.271276 -1.252772 1.129592 4.295614 -0.950844 -3.171293 29.406633 0.658967 -3.073700 14.476400 4.363700 -94.081267 0.473561 11.948308 16.267057 -25.791722 -3.488152 0.169898 0.355619 -6.924765 -7.125000 0.000000 0.000000 83.816305 -0.626540 23.625153 -14.419793 23.637050 -3.000594 0.085984 -0.505842 -9.457916 7.125000 0.000000 0.000000 
-0.327280 17.816069 -29.316780 -3.345640 35.956418 0.687225 -6.330784 -10.686820 -10.426898 0.704528 9.767193 26.253006 -0.250605 3.515546 2.301580 0.244400 -3.181100 -8.783300 15.397393 -12.375601 -7.650303 -1.220949 -9.218869 23.888768 8.826682 -33.703185 -20.509862 -0.007500 -0.558700 1.535100 2.513140 8.305539 -1.256770 1.120228 4.313742 -0.970590 -3.160180 29.462289 0.578413 -3.062200 14.501100 4.323500 -94.102187 0.445428 12.181190 16.498978 -26.100203 -3.581556 0.168629 0.355611 -7.257466 -7.125000 0.000000 0.000000 83.943196 -0.757044 23.429596 -14.104093 23.222310 -2.888571 0.078399 -0.503045 -8.855303 7.125000 0.000000 0.000000 
-0.328278 17.816069 -29.318876 -3.353603 36.098777 0.671449 -6.325823 -10.736876 -10.433718 0.703479 9.766186 26.255398 -0.223403 3.421546 2.331126 0.243400 -3.175100 -8.766600 15.415496 -12.453682 -7.663593 -1.221226 -9.216806 23.885230 8.833526 -33.733734 -20.562941 -0.007800 -0.571400 1.570200 2.511932 8.343750 -1.259778 1.107530 4.333720 -0.996219 -3.154271 29.507709 0.498108 -3.055300 14.521100 4.285600 -94.100288 0.428647 12.398212 16.716311 -26.386154 -3.669510 0.167270 0.353750 -7.487221 -7.125000 0.000000 0.000000 84.075217 -0.890828 23.205363 -13.810161 22.833928 -2.786210 0.071450 -0.500221 -8.320751 7.125000 0.000000 0.000000 
-0.329975 17.815769 -29.319775 -3.381144 36.232132 0.633025 -6.302317 -10.771744 -10.432887 0.703059 9.765820 26.259198 -0.195527 3.325902 2.358423 0.243100 -3.172700 -8.760100 15.455986 -12.509066 -7.648939 -1.219293 -9.212318 23.873661 8.842120 -33.776260 -20.640320 -0.008300 -0.587100 1.613300 2.521622 8.370165 -1.255818 1.105826 4.347521 -1.016082 -3.146129 29.562513 0.436064 -3.042700 14.545400 4.255600 -94.107820 0.405207 12.560403 16.919104 -26.651324 -3.752242 0.165470 0.351447 -7.673354 -7.125000 0.000000 0.000000 84.196509 -1.020516 22.992841 -13.542896 22.478585 -2.693924 0.065966 -0.497123 -7.852976 7.125000 0.000000 0.000000 
-0.331373 17.815469 -29.320474 -3.395461 36.359302 0.600932 -6.291283 -10.804456 -10.433628 0.704546 9.769336 26.274680 -0.168677 3.232546 2.374968 0.243200 -3.173600 -8.762500 15.482513 -12.568472 -7.637747 -1.219320 -9.211382 23.873466 8.847738 -33.809631 -20.713686 -0.008600 -0.598400 1.644500 2.523349 8.398252 -1.252704 1.094065 4.362005 -1.036227 -3.163365 29.610869 0.403790 -3.039100 14.567300 4.245500 -94.095896 0.397775 12.742570 17.121945 -26.914547 -3.835728 0.163319 0.350155 -7.882341 -7.125000 0.000000 0.000000 84.322942 -1.148731 22.766046 -13.291724 22.142762 -2.607966 0.061305 -0.493729 -7.400529 7.125000 0.000000 0.000000 
-0.332871 17.815170 -29.320773 -3.416085 36.470635 0.564956 -6.273966 -10.825283 -10.435142 0.706528 9.773200 26.290569 -0.142531 3.141595 2.389628 0.243100 -3.172600 -8.759700 15.514246 -12.616810 -7.620973 -1.218716 -9.209726 23.870424 8.853508 -33.842673 -20.782921 -0.008800 -0.606900 1.667900 2.532949 8.422279 -1.245229 1.094106 4.374689 -1.051501 -3.207360 29.668185 0.365430 -3.048800 14.594900 4.236000 -94.098251 0.381553 12.872688 17.304861 -27.151490 -3.911818 0.161465 0.348822 -8.045231 -7.125000 0.000000 0.000000 84.432166 -1.283192 22.568445 -13.070448 21.844904 -2.532546 0.057755 -0.490174 -6.979521 7.125000 0.000000 0.000000 
-0.333969 17.812474 -29.321472 -3.423723 36.571795 0.543219 -6.267880 -10.841373 -10.446248 0.708984 9.778218 26.310618 -0.116665 3.050867 2.401016 0.242700 -3.170100 -8.752600 15.529206 -12.676229 -7.620039 -1.219705 -9.209869 23.873356 8.856948 -33.862818 -20.826126 -0.008900 -0.609200 1.674200 2.535057 8.452956 -1.240294 1.086712 4.390811 -1.065557 -3.273876 29.715568 0.332131 -3.067800 14.617900 4.233200 -94.089925 0.368034 13.008899 17.471625 -27.366541 -3.981968 0.159966 0.348295 -8.200480 -7.125000 0.000000 0.000000 84.540194 -1.419750 22.370549 -12.871640 21.576267 -2.465073 0.055435 -0.486516 -6.608260 7.125000 0.000000 0.000000 
